# xmcd
#
# Track frame offsets: 
#        150
#        17361
#        34003
#        48511
#        65169
#        79651
#        101139
#        119112
#        134310
#        148365
#
# Disc length: 2256 seconds
#
# Revision: 0
# Processed by: cddbd v1.5.2PL0 Copyright (c) Steve Scherf et al.
# Submitted via: ExactAudioCopyFreeDBPlugin 1.0
#
DISCID=9308ce0a
DTITLE=The Todd Tijerina Band - Now
DYEAR=2006
DGENRE=Blues
TTITLE0=Do You Believe in Me?
TTITLE1=Sometimes
TTITLE2=E-Jam
TTITLE3=Desire and Fear
TTITLE4=Never Goin' Back
TTITLE5=Blues at My Baby's House
TTITLE6=I Meant It
TTITLE7=Life's Too Short
TTITLE8=Nothin' Like the Blues
TTITLE9=I Tried
EXTD=
EXTT0=
EXTT1=
EXTT2=
EXTT3=
EXTT4=
EXTT5=
EXTT6=
EXTT7=
EXTT8=
EXTT9=
PLAYORDER=
